<svg width="171" height="46" viewBox="0 0 171 46" fill="none" xmlns="http://www.w3.org/2000/svg">
<path d="M0.0835029 9.50114C0.091189 6.73973 2.33599 4.50743 5.0974 4.51517L158.995 4.94634C160.143 4.94956 161.243 5.44444 162.053 6.32213C162.862 7.19982 163.315 8.38841 163.312 9.62643L163.24 35.2904C163.237 36.5284 162.777 37.7144 161.963 38.5876C161.148 39.4607 160.046 39.9494 158.897 39.9462L4.99997 39.515C2.23856 39.5073 0.00623266 37.2625 0.0139187 34.501L0.0835029 9.50114Z" fill="#CD3F97"/>
<path d="M115.173 5.25675L115.088 40.0254L150.088 40.1374L150.173 5.36873L115.173 5.25675Z" fill="#AA1070"/>
<path d="M147.47 45.5863L132.744 45.5863C130.628 45.5863 128.6 44.7432 127.104 43.2424C125.608 41.7417 124.767 39.7062 124.767 37.5838V8.00254C124.767 5.88014 125.608 3.84467 127.104 2.34391C128.6 0.843147 130.628 3.05176e-05 132.744 3.05176e-05L147.47 3.05176e-05C150.454 2.67029e-05 153.409 0.590218 156.166 1.73685C158.922 2.88347 161.426 4.56404 163.535 6.68243C165.643 8.80083 167.315 11.3155 168.454 14.0826C169.593 16.8497 170.177 19.8149 170.173 22.8087C170.173 28.8497 167.781 34.6433 163.524 38.9149C159.266 43.1865 153.492 45.5863 147.47 45.5863Z" fill="#CD3F97"/>
<path d="M147.471 5.99106C151.859 5.99519 156.067 7.74721 159.169 10.8622C162.27 13.9771 164.013 18.2001 164.013 22.6033C164.013 27.005 162.27 31.2264 159.168 34.3389C156.065 37.4513 151.858 39.1999 147.471 39.1999C143.083 39.1999 138.876 37.4513 135.773 34.3389C132.671 31.2264 130.928 27.005 130.928 22.6033C130.928 18.2001 132.671 13.9771 135.772 10.8622C138.874 7.74721 143.082 5.99519 147.471 5.99106Z" fill="white"/>
</svg>
