<svg width="48" height="48" viewBox="0 0 48 48" fill="none" xmlns="http://www.w3.org/2000/svg">
<circle cx="24" cy="23.9999" r="22.5" fill="#9B52C5" stroke="#F8EBFD" stroke-width="3"/>
<circle cx="24.0004" cy="23.9999" r="20.3636" fill="#FD3737"/>
<path d="M14.1953 7.57904C17.7038 5.09838 20.3264 5.0694 21.1991 5.36499C14.0686 7.95307 13.1758 11.82 12.6751 12.0673C10.8698 12.9591 9.80957 10.6799 14.1953 7.57904Z" fill="white"/>
<ellipse cx="23.0468" cy="4.60168" rx="1" ry="0.5" transform="rotate(-6.00198 23.0468 4.60168)" fill="white"/>
<path d="M30.9021 15.9999H31.0273C31.056 16.0111 31.0855 16.0202 31.1155 16.0272C31.5646 16.1046 31.8894 16.4168 31.9752 16.862C32.0502 17.2556 31.9075 17.5731 31.6313 17.8498C29.6197 19.863 27.6093 21.8763 25.6003 23.8896C25.5426 23.9393 25.4822 23.986 25.4196 24.0293C25.482 24.0718 25.5418 24.1178 25.5988 24.1672C27.5874 26.158 29.5753 28.1494 31.5626 30.1412C31.6215 30.2006 31.6824 30.2581 31.737 30.3209C31.8446 30.444 31.9217 30.5906 31.9621 30.749C32.0025 30.9074 32.0049 31.0731 31.9693 31.2327C31.9337 31.3922 31.8609 31.5411 31.757 31.6673C31.6531 31.7935 31.5209 31.8934 31.3712 31.959C31.3098 31.9857 31.246 32.0077 31.1837 32.0315H30.7146C30.415 31.9297 30.1988 31.7159 29.984 31.4957C28.0357 29.5387 26.0853 27.5837 24.1327 25.6309C24.0899 25.588 24.0451 25.5471 23.9866 25.4891C23.9379 25.5481 23.8984 25.5982 23.8546 25.6421C21.8966 27.6043 19.939 29.5669 17.9819 31.5299C17.7749 31.7373 17.565 31.9332 17.2815 32.0296H16.8124C16.6001 31.9536 16.3867 31.8684 16.2557 31.6765C16.1525 31.525 16.0838 31.3491 16 31.1845V30.8397C16.0706 30.526 16.2698 30.3 16.4905 30.0793C18.4632 28.1093 20.4335 26.1371 22.4017 24.1628C22.459 24.1161 22.5201 24.074 22.5843 24.0371C22.4908 23.9626 22.4382 23.9285 22.3934 23.8842C20.4272 21.9154 18.4609 19.9468 16.4944 17.9784C16.2733 17.7577 16.075 17.5308 16 17.219V16.8766C16.0838 16.5844 16.2197 16.3238 16.4934 16.1738C16.6395 16.0939 16.8095 16.0564 16.9688 15.9999H17.094C17.4744 16.0486 17.7374 16.279 17.9965 16.5396C19.9517 18.507 21.9102 20.4716 23.8721 22.4332C23.9121 22.4731 23.9535 22.5106 24.0309 22.5842C24.0629 22.5274 24.0999 22.4736 24.1415 22.4234C26.096 20.4631 28.0505 18.5026 30.0049 16.542C30.2592 16.2795 30.5217 16.0457 30.9021 15.9999Z" fill="white"/>
</svg>
