<svg width="1022" height="239" viewBox="0 0 1022 239" fill="none" xmlns="http://www.w3.org/2000/svg">
<g filter="url(#filter0_d_0_2602)">
<rect x="2" y="4.95911e-05" width="1018" height="228.239" rx="20" fill="#FE6784"/>
</g>
<path style="mix-blend-mode:multiply" fill-rule="evenodd" clip-rule="evenodd" d="M137.847 218.351C336.899 216.788 792.967 215.859 972.975 218.351C977.259 218.63 981.732 218.404 985.486 217.717C988.544 216.873 988.266 215.226 988.405 214.001C988.405 209.779 989.378 205.134 988.405 201.84L949.345 200.953L988.405 198.166C984.791 175.645 982.289 152.983 980.899 130.18L959.77 127.942L980.76 125.788C979.092 93.3996 986.876 63.1225 990.629 30.8185C980.658 23.4148 968.222 16.3401 953.515 9.70473C952.28 9.08833 950.545 8.57839 948.477 8.22355C946.408 7.86871 944.075 7.6808 941.7 7.67779C862.051 9.83139 193.726 12.2384 50.2757 10.0426C46.5891 10.0426 43.0535 10.4874 40.4467 11.2794C37.8399 12.0713 36.3754 13.1454 36.3754 14.2653C35.5414 23.7665 39.0165 29.9739 40.1285 39.0106L55.5578 41.9665L48.6077 44.7536L49.8587 46.9071L41.1015 48.7652C44.4376 82.5472 44.1132 116.146 40.1285 149.562L51.8047 151.378L45.9666 154.629L62.3689 157.163L38.8775 158.979C37.0704 172.407 30.2593 185.92 29.9813 198.968C61.2009 207.687 98.1557 214.293 138.403 218.351H137.847Z" fill="url(#paint0_radial_0_2602)"/>
<path fill-rule="evenodd" clip-rule="evenodd" d="M138.281 219.705C167.893 222.038 889.002 220.872 1003 218.314C1002.03 213.827 1001.19 208.936 1000.36 204.225L959.625 203.148L999.802 200.276C996.003 177.422 993.407 154.464 992.017 131.401L970.33 129.112L991.739 126.958C990.071 94.1133 997.3 37.7563 1000.36 4.82154H942.942C935.852 3.8344 139.81 5.71892 23.1707 7.1099C25.117 17.6993 26.7389 28.2737 28.0364 38.8332L43.746 41.8395L36.6558 44.6663L38.0461 46.8201L29.0096 48.7046C32.5315 82.8958 32.2071 116.937 28.0364 150.829L39.9924 152.714L34.0144 155.989L50.8361 158.592L26.7852 160.432C24.8389 174.491 22.2439 188.535 19 202.565V218.314L138.281 219.526V219.705Z" fill="url(#paint1_linear_0_2602)"/>
<path style="mix-blend-mode:screen" opacity="0.5" fill-rule="evenodd" clip-rule="evenodd" d="M152.721 208.385C138.82 206.654 133.26 203.022 125.754 197.448C103.931 181.571 75.5741 184.442 52.7777 180.093C37.6264 177.179 32.7613 168.438 60.9788 156.699C86.8333 145.804 39.7114 133.811 41.3795 111.093C42.4915 96.5666 68.068 73.5948 72.377 66.7962C76.0709 63.6954 77.0136 60.3538 75.1104 57.1073C73.2073 53.8607 68.5253 50.8234 61.5348 48.3006C54.0287 44.8379 62.5079 43.2333 44.0205 34.5344C34.2903 29.9316 37.3484 26.7223 46.9396 24.3576C102.541 10.4648 245.574 19.3325 308.682 21.1483C337.455 21.9506 358.306 16.3766 405.983 17.7701C490.636 20.2615 477.57 7.63551 599.475 22.8374C678.985 32.8031 692.468 16.5033 760.023 18.2346C793.94 19.1214 805.338 16.8411 827.023 16.081C843.042 15.1312 859.515 15.1312 875.535 16.081C905.42 18.7836 891.242 27.778 917.235 33.3098C954.21 41.2486 994.521 30.185 976.172 53.2834C966.998 64.896 956.156 78.6199 973.531 92.8084C978.819 98.8546 978.819 105.216 973.531 111.262C950.874 126.59 930.023 124.226 959.631 132.967C984.096 140.103 949.762 145.931 967.415 154.08C985.069 162.23 976.311 169.325 957.407 185.118C954.766 187.271 967.554 189.889 943.507 194.112C926.966 197.026 985.208 205.471 853.016 205.471C815.346 205.471 803.809 209.694 765.861 209.145C700.252 208.554 662.165 202.938 581.127 204.922C528.167 206.316 501.756 208.681 445.182 207.921C411.544 207.498 404.593 210.75 358.862 206.654C289.36 200.488 216.245 216.028 153.277 208.385H152.721Z" fill="url(#paint2_radial_0_2602)"/>
<defs>
<filter id="filter0_d_0_2602" x="0" y="4.95911e-05" width="1022" height="238.239" filterUnits="userSpaceOnUse" color-interpolation-filters="sRGB">
<feFlood flood-opacity="0" result="BackgroundImageFix"/>
<feColorMatrix in="SourceAlpha" type="matrix" values="0 0 0 0 0 0 0 0 0 0 0 0 0 0 0 0 0 0 127 0" result="hardAlpha"/>
<feOffset dy="8"/>
<feGaussianBlur stdDeviation="1"/>
<feComposite in2="hardAlpha" operator="out"/>
<feColorMatrix type="matrix" values="0 0 0 0 0 0 0 0 0 0 0 0 0 0 0 0 0 0 0.25 0"/>
<feBlend mode="normal" in2="BackgroundImageFix" result="effect1_dropShadow_0_2602"/>
<feBlend mode="normal" in="SourceGraphic" in2="effect1_dropShadow_0_2602" result="shape"/>
</filter>
<radialGradient id="paint0_radial_0_2602" cx="0" cy="0" r="1" gradientUnits="userSpaceOnUse" gradientTransform="translate(491.748 146.184) scale(881.138 267.68)">
<stop stop-color="#706F6F"/>
<stop offset="1" stop-color="white"/>
</radialGradient>
<linearGradient id="paint1_linear_0_2602" x1="511" y1="220.962" x2="511" y2="4.73179" gradientUnits="userSpaceOnUse">
<stop stop-color="#FFF7ED"/>
<stop offset="1" stop-color="#FFFAF4"/>
</linearGradient>
<radialGradient id="paint2_radial_0_2602" cx="0" cy="0" r="1" gradientUnits="userSpaceOnUse" gradientTransform="translate(509.262 112.866) scale(714.474 217.049)">
<stop stop-color="white"/>
<stop offset="1"/>
</radialGradient>
</defs>
</svg>
